<?xml version="1.0" standalone="no"?>
<!DOCTYPE svg PUBLIC "-//W3C//DTD SVG 20010904//EN"
 "http://www.w3.org/TR/2001/REC-SVG-20010904/DTD/svg10.dtd">
<svg version="1.0" xmlns="http://www.w3.org/2000/svg"
 width="384.000000pt" height="384.000000pt" viewBox="0 0 384.000000 384.000000"
 preserveAspectRatio="xMidYMid meet">
<metadata>
Created by potrace 1.14, written by Peter Selinger 2001-2017
</metadata>
<g transform="translate(0.000000,384.000000) scale(0.100000,-0.100000)"
fill="#000000" stroke="none">
<path d="M253 2393 c-16 -7 -41 -33 -54 -56 -21 -37 -24 -55 -24 -147 0 -58 5
-129 11 -158 l11 -53 -71 3 -71 2 0 -64 0 -65 92 0 93 0 41 -85 c70 -145 183
-281 271 -324 44 -22 110 -20 140 4 65 50 81 195 43 376 l-7 30 64 -1 c34 -1
68 0 73 2 9 3 12 63 6 118 -1 6 -38 9 -94 9 l-93 -2 -33 72 c-109 233 -293
390 -398 339z m219 -239 c47 -24 148 -137 148 -165 0 -4 -80 -6 -177 -5 l-178
1 2 47 c2 58 34 115 76 133 34 14 89 9 129 -11z m186 -342 c6 -86 -59 -165
-128 -156 -52 8 -68 14 -113 49 -45 34 -120 131 -112 144 2 4 81 6 177 6 l173
0 3 -43z"/>
<path d="M3395 2260 c-1 -3 -3 -130 -3 -282 l1 -278 56 0 57 0 -1 70 c0 60 3
74 21 91 l22 21 15 -24 c8 -12 31 -49 51 -81 20 -31 36 -62 36 -67 0 -6 31
-10 70 -10 39 0 70 2 70 5 0 3 -36 59 -80 125 -44 66 -80 123 -80 128 0 4 31
37 70 72 38 36 70 68 70 73 0 4 -28 7 -61 7 l-61 0 -69 -72 c-38 -39 -70 -65
-70 -57 -1 8 -2 75 -3 149 l-1 134 -53 1 c-29 1 -55 -2 -57 -5z"/>
<path d="M2600 2170 l0 -60 -36 0 c-35 0 -35 -1 -32 -37 3 -35 6 -38 33 -38
l30 -1 3 -134 c1 -76 7 -145 13 -157 7 -12 25 -27 41 -34 28 -11 112 -19 134
-12 8 3 11 53 5 83 -1 3 -15 6 -32 6 -16 1 -33 5 -37 9 -4 4 -7 58 -8 121 -1
117 1 122 40 115 28 -5 44 11 42 42 -2 30 -5 32 -43 35 l-42 3 1 47 c1 75 3
72 -57 72 l-55 0 0 -60z"/>
<path d="M1154 2101 c-82 -37 -124 -112 -119 -212 1 -30 10 -70 20 -89 85
-170 358 -135 377 47 1 5 -22 9 -49 10 -48 2 -52 0 -64 -29 -15 -37 -64 -60
-105 -49 -48 13 -70 65 -65 158 1 41 47 93 81 95 50 2 61 -3 80 -35 18 -31 23
-33 67 -31 27 1 51 2 56 3 14 2 -23 76 -53 103 -53 49 -153 62 -226 29z"/>
<path d="M1657 2106 c-82 -30 -131 -110 -129 -208 3 -133 88 -209 225 -204 56
2 74 7 108 32 62 43 84 92 84 186 -1 70 -4 81 -32 120 -17 23 -47 51 -67 61
-48 25 -140 31 -189 13z m123 -81 c66 -21 76 -191 14 -232 -39 -25 -90 -21
-122 11 -23 23 -27 36 -29 89 -1 77 8 102 48 126 30 18 47 19 89 6z"/>
<path d="M2240 2109 c-14 -5 -35 -20 -47 -31 l-23 -21 0 26 c0 26 -2 27 -54
27 l-54 0 0 -205 0 -205 57 0 56 0 1 134 c0 108 3 139 17 160 30 45 105 47
128 4 7 -14 12 -75 13 -160 l0 -138 57 0 57 0 -2 163 c-2 173 -11 206 -58 236
-28 17 -117 23 -148 10z"/>
<path d="M3005 2111 c-65 -16 -115 -63 -115 -107 0 -22 4 -24 54 -24 48 0 54
3 60 23 12 49 109 54 133 7 19 -38 -5 -55 -95 -70 -101 -16 -141 -35 -158 -76
-18 -43 -18 -68 2 -109 21 -45 64 -64 139 -62 45 2 68 8 93 25 32 23 32 23 32
3 0 -19 6 -21 60 -21 48 0 58 3 54 15 -3 8 -7 83 -8 167 -2 173 -8 191 -67
217 -41 19 -133 25 -184 12z m134 -281 c-10 -46 -33 -62 -84 -62 -46 0 -56 4
-66 28 -16 43 7 66 82 84 74 17 82 12 68 -50z"/>
</g>
</svg>
